<svg xmlns="http://www.w3.org/2000/svg" width="89" height="82" viewBox="-10 0 79 72">
    <defs id="SvgjsDefs3702"/>
    <g id="SvgjsG3703"
       transform="matrix(0.9012731225482162,0,0,0.9012731225482162,-13.419055466611045,-7.91317863482848)"
       fill="#1976d2">
        <g xmlns="http://www.w3.org/2000/svg">
            <g>
                <path d="M56.389,74.57h-17c-2.804,0-5-1.658-5-3.775s2.196-3.775,5-3.775h17c2.804,0,5,1.658,5,3.775S59.192,74.57,56.389,74.57z     M39.389,69.02c-1.768,0-3,0.936-3,1.775s1.232,1.775,3,1.775h17c1.768,0,3-0.936,3-1.775s-1.232-1.775-3-1.775H39.389z"/>
            </g>
        </g>
        <g xmlns="http://www.w3.org/2000/svg">
            <g>
                <path d="M56.389,83.121h-17c-2.804,0-5-1.658-5-3.775s2.196-3.775,5-3.775h17c2.804,0,5,1.658,5,3.775    S59.192,83.121,56.389,83.121z M39.389,77.57c-1.768,0-3,0.936-3,1.775s1.232,1.775,3,1.775h17c1.768,0,3-0.936,3-1.775    s-1.232-1.775-3-1.775H39.389z"/>
            </g>
        </g>
        <g xmlns="http://www.w3.org/2000/svg">
            <g>
                <path d="M49.889,88.667h-4c-2.637,0-5.247-1.51-5.941-3.437l-1-2.775c-0.187-0.52,0.082-1.093,0.602-1.279    c0.518-0.191,1.092,0.081,1.28,0.602l1,2.775c0.36,1,2.116,2.114,4.059,2.114h4c1.943,0,3.699-1.114,4.059-2.114l1-2.775    c0.188-0.521,0.762-0.792,1.28-0.602c0.52,0.187,0.789,0.76,0.602,1.279l-1,2.775C55.135,87.157,52.526,88.667,49.889,88.667z"/>
            </g>
        </g>
        <g xmlns="http://www.w3.org/2000/svg">
            <g>
                <g>
                    <path d="M56.389,66.02h-17c-2.757,0-5-1.994-5-4.445c0-1.67-1.069-4.358-2.334-5.871c-0.235-0.281-5.767-6.97-5.767-13.924     c0-11.911,9.69-21.602,21.602-21.602s21.602,9.69,21.602,21.602c0,6.954-5.532,13.643-5.768,13.924     c-1.265,1.513-2.334,4.201-2.334,5.871C61.389,64.025,59.146,66.02,56.389,66.02z M47.889,22.178     c-10.808,0-19.602,8.793-19.602,19.602c0,6.235,5.248,12.577,5.301,12.641c1.571,1.876,2.801,5.02,2.801,7.154     c0,1.325,1.374,2.445,3,2.445h17c1.626,0,3-1.12,3-2.445c0-2.135,1.23-5.278,2.8-7.154c0.053-0.063,5.301-6.421,5.301-12.641     C67.49,30.971,58.697,22.178,47.889,22.178z"/>
                </g>
            </g>
            <g>
                <g>
                    <path d="M56.389,66.02h-17c-2.757,0-5-1.994-5-4.445c0-1.67-1.069-4.358-2.334-5.871c-0.235-0.281-5.767-6.97-5.767-13.924     c0-11.911,9.69-21.602,21.602-21.602s21.602,9.69,21.602,21.602c0,6.954-5.532,13.643-5.768,13.924     c-1.265,1.513-2.334,4.201-2.334,5.871C61.389,64.025,59.146,66.02,56.389,66.02z M47.889,22.178     c-10.808,0-19.602,8.793-19.602,19.602c0,6.235,5.248,12.577,5.301,12.641c1.571,1.876,2.801,5.02,2.801,7.154     c0,1.325,1.374,2.445,3,2.445h17c1.626,0,3-1.12,3-2.445c0-2.135,1.23-5.278,2.8-7.154c0.053-0.063,5.301-6.421,5.301-12.641     C67.49,30.971,58.697,22.178,47.889,22.178z"/>
                </g>
            </g>
        </g>
        <g xmlns="http://www.w3.org/2000/svg">
            <g>
                <path d="M45.889,66.02c-0.552,0-1-0.447-1-1V46.446c0-2.022-1.645-3.667-3.667-3.667c-2.021,0-3.667,1.645-3.667,3.667    s1.645,3.667,3.667,3.667c0.552,0,1,0.447,1,1s-0.448,1-1,1c-3.125,0-5.667-2.542-5.667-5.667s2.542-5.667,5.667-5.667    c3.125,0,5.667,2.542,5.667,5.667V65.02C46.889,65.572,46.441,66.02,45.889,66.02z"/>
            </g>
        </g>
        <g xmlns="http://www.w3.org/2000/svg">
            <g>
                <path d="M49.889,66.02c-0.552,0-1-0.447-1-1V46.446c0-3.125,2.542-5.667,5.667-5.667c3.125,0,5.667,2.542,5.667,5.667    s-2.542,5.667-5.667,5.667c-0.552,0-1-0.447-1-1s0.448-1,1-1c2.021,0,3.667-1.645,3.667-3.667s-1.645-3.667-3.667-3.667    c-2.022,0-3.667,1.645-3.667,3.667V65.02C50.889,65.572,50.441,66.02,49.889,66.02z"/>
            </g>
        </g>
        <g xmlns="http://www.w3.org/2000/svg">
            <g>
                <path d="M23.288,42.779h-7.399c-0.552,0-1-0.447-1-1s0.448-1,1-1h7.399c0.552,0,1,0.447,1,1S23.84,42.779,23.288,42.779z"/>
            </g>
        </g>
        <g xmlns="http://www.w3.org/2000/svg">
            <g>
                <path d="M79.889,42.779h-7.398c-0.552,0-1-0.447-1-1s0.448-1,1-1h7.398c0.552,0,1,0.447,1,1S80.441,42.779,79.889,42.779z"/>
            </g>
        </g>
        <g xmlns="http://www.w3.org/2000/svg">
            <g>
                <path d="M20.177,58.779c-0.346,0-0.682-0.179-0.867-0.5c-0.276-0.479-0.112-1.09,0.366-1.366l6.408-3.699    c0.479-0.276,1.089-0.113,1.366,0.366c0.276,0.479,0.112,1.09-0.366,1.366l-6.408,3.699    C20.518,58.736,20.346,58.779,20.177,58.779z"/>
            </g>
        </g>
        <g xmlns="http://www.w3.org/2000/svg">
            <g>
                <path d="M69.196,30.479c-0.346,0-0.682-0.179-0.867-0.5c-0.276-0.479-0.112-1.09,0.366-1.366l6.406-3.699    c0.478-0.277,1.089-0.112,1.366,0.366c0.276,0.479,0.112,1.09-0.366,1.366l-6.406,3.699    C69.538,30.436,69.366,30.479,69.196,30.479z"/>
            </g>
        </g>
        <g xmlns="http://www.w3.org/2000/svg">
            <g>
                <path d="M60.19,21.473c-0.169,0-0.341-0.043-0.499-0.134c-0.478-0.276-0.642-0.888-0.366-1.366l3.697-6.406    c0.275-0.478,0.887-0.644,1.366-0.366c0.478,0.276,0.642,0.888,0.366,1.366l-3.697,6.406    C60.873,21.293,60.536,21.473,60.19,21.473z"/>
            </g>
        </g>
        <g xmlns="http://www.w3.org/2000/svg">
            <g>
                <path d="M47.891,18.176c-0.553,0-1-0.447-1-1l-0.002-7.396c0-0.552,0.447-1,1-1c0.553,0,1,0.447,1,1l0.002,7.396    C48.891,17.728,48.443,18.176,47.891,18.176z"/>
            </g>
        </g>
        <g xmlns="http://www.w3.org/2000/svg">
            <g>
                <path d="M35.591,21.471c-0.346,0-0.682-0.179-0.867-0.5l-3.701-6.404c-0.276-0.478-0.113-1.09,0.365-1.366s1.09-0.114,1.366,0.366    l3.701,6.404c0.276,0.478,0.113,1.09-0.365,1.366C35.933,21.428,35.761,21.471,35.591,21.471z"/>
            </g>
        </g>
        <g xmlns="http://www.w3.org/2000/svg">
            <g>
                <path d="M75.601,58.779c-0.17,0-0.342-0.043-0.5-0.134l-6.406-3.703c-0.478-0.276-0.642-0.889-0.365-1.366    c0.276-0.479,0.887-0.642,1.366-0.366l6.406,3.703c0.478,0.276,0.642,0.889,0.365,1.366    C76.282,58.601,75.946,58.779,75.601,58.779z"/>
            </g>
        </g>
        <g xmlns="http://www.w3.org/2000/svg">
            <g>
                <path d="M26.583,30.475c-0.169,0-0.341-0.043-0.499-0.134l-6.408-3.695c-0.479-0.275-0.643-0.888-0.367-1.366    c0.276-0.478,0.887-0.644,1.366-0.366l6.408,3.695c0.479,0.275,0.643,0.888,0.367,1.366    C27.265,30.295,26.929,30.475,26.583,30.475z"/>
            </g>
        </g>
    </g>
</svg>
